
<svg width="678" height="208" viewBox="0 0 678 208" fill="none" xmlns="http://www.w3.org/2000/svg">
<path d="M530.152 132.572C526.118 132.572 522.523 131.691 519.367 129.931C516.212 128.144 513.729 125.723 511.919 122.668C510.134 119.587 509.242 116.092 509.242 112.182C509.242 109.231 509.772 106.525 510.833 104.065C511.893 101.58 513.393 99.4179 515.333 97.5797C517.273 95.7414 519.548 94.3174 522.161 93.3076C524.799 92.2979 527.656 91.793 530.734 91.793C533.32 91.793 535.713 92.1425 537.911 92.8416C540.135 93.5147 542.178 94.5633 544.04 95.9874L539.928 102.512C538.739 101.45 537.368 100.661 535.816 100.143C534.29 99.6251 532.661 99.3662 530.928 99.3662C528.238 99.3662 525.924 99.871 523.984 100.881C522.044 101.891 520.531 103.353 519.445 105.269C518.385 107.159 517.854 109.451 517.854 112.143C517.854 116.157 519.018 119.302 521.346 121.581C523.699 123.859 526.893 124.999 530.928 124.999C532.842 124.999 534.652 124.649 536.359 123.95C538.066 123.225 539.489 122.28 540.626 121.115L544.7 127.601C542.657 129.154 540.381 130.371 537.872 131.251C535.363 132.132 532.79 132.572 530.152 132.572Z" fill="#FAF9F6"/>
<path d="M453.993 132.569C451.329 132.569 448.989 132.078 446.971 131.094C444.954 130.084 443.376 128.673 442.238 126.86C441.126 125.022 440.57 122.86 440.57 120.375C440.57 118.277 441.1 116.387 442.161 114.704C443.221 112.996 444.864 111.585 447.088 110.471C449.338 109.358 452.221 108.62 455.739 108.258C459.256 107.869 463.485 107.921 468.424 108.413L468.58 114.316C465.062 113.824 462.036 113.617 459.502 113.695C456.967 113.772 454.885 114.096 453.256 114.666C451.652 115.209 450.463 115.947 449.687 116.879C448.937 117.786 448.562 118.834 448.562 120.025C448.562 121.889 449.221 123.326 450.54 124.336C451.885 125.346 453.721 125.851 456.049 125.851C458.041 125.851 459.825 125.488 461.403 124.763C462.98 124.038 464.222 123.016 465.127 121.695C466.058 120.375 466.523 118.821 466.523 117.035V106.821C466.523 105.112 466.161 103.636 465.437 102.393C464.713 101.125 463.614 100.141 462.14 99.4416C460.666 98.7425 458.829 98.393 456.631 98.393C454.614 98.393 452.622 98.7037 450.657 99.3251C448.691 99.9206 446.816 100.866 445.032 102.16L442.626 95.8686C445.032 94.2374 447.54 93.0853 450.152 92.4121C452.765 91.7389 455.273 91.4023 457.678 91.4023C461.248 91.4023 464.299 91.972 466.834 93.1112C469.394 94.2245 471.36 95.9204 472.73 98.1988C474.101 100.451 474.787 103.299 474.787 106.743V131.404H467.105V126.86C465.812 128.699 464.015 130.11 461.713 131.094C459.411 132.078 456.838 132.569 453.993 132.569Z" fill="#FAF9F6"/>
<path d="M370.84 132.572C366.832 132.572 363.25 131.653 360.095 129.814C356.965 127.95 354.508 125.477 352.724 122.396C350.939 119.289 350.047 115.885 350.047 112.182C350.047 109.438 350.551 106.849 351.56 104.415C352.594 101.955 354.043 99.7804 355.905 97.8904C357.793 96.0003 360.004 94.5116 362.539 93.4241C365.073 92.3367 367.853 91.793 370.879 91.793C374.888 91.793 378.457 92.7251 381.586 94.5892C384.742 96.4275 387.211 98.9001 388.996 102.007C390.781 105.088 391.673 108.48 391.673 112.182C391.673 114.901 391.156 117.49 390.121 119.95C389.112 122.409 387.677 124.584 385.815 126.474C383.953 128.364 381.754 129.853 379.22 130.941C376.685 132.028 373.892 132.572 370.84 132.572ZM370.84 124.999C373.22 124.999 375.328 124.481 377.164 123.445C379.026 122.383 380.487 120.895 381.548 118.979C382.608 117.063 383.138 114.797 383.138 112.182C383.138 109.567 382.608 107.302 381.548 105.386C380.487 103.444 379.026 101.955 377.164 100.92C375.328 99.884 373.22 99.3662 370.84 99.3662C368.461 99.3662 366.34 99.884 364.478 100.92C362.642 101.955 361.194 103.444 360.133 105.386C359.099 107.302 358.582 109.567 358.582 112.182C358.582 114.797 359.112 117.063 360.172 118.979C361.232 120.895 362.681 122.383 364.517 123.445C366.379 124.481 368.487 124.999 370.84 124.999Z" fill="#FAF9F6"/>
<path d="M268.169 132.57C266.514 132.57 265.078 132.039 263.863 130.977C262.673 129.916 262.078 128.531 262.078 126.822C262.078 125.657 262.35 124.647 262.893 123.793C263.436 122.912 264.173 122.239 265.104 121.773C266.035 121.281 267.057 121.035 268.169 121.035C269.85 121.035 271.272 121.566 272.436 122.627C273.626 123.663 274.221 125.061 274.221 126.822C274.221 127.961 273.949 128.971 273.406 129.851C272.863 130.706 272.126 131.366 271.195 131.832C270.29 132.324 269.281 132.57 268.169 132.57Z" fill="#FAF9F6"/>
<path d="M198.191 132.572C194.157 132.572 190.562 131.691 187.406 129.931C184.251 128.144 181.768 125.723 179.958 122.668C178.174 119.587 177.281 116.092 177.281 112.182C177.281 109.231 177.811 106.525 178.872 104.065C179.932 101.58 181.432 99.4179 183.372 97.5797C185.312 95.7414 187.588 94.3174 190.2 93.3076C192.838 92.2979 195.695 91.793 198.773 91.793C201.359 91.793 203.752 92.1425 205.95 92.8416C208.174 93.5147 210.217 94.5633 212.079 95.9874L207.967 102.512C206.778 101.45 205.407 100.661 203.855 100.143C202.329 99.6251 200.7 99.3662 198.967 99.3662C196.277 99.3662 193.963 99.871 192.023 100.881C190.083 101.891 188.57 103.353 187.484 105.269C186.424 107.159 185.894 109.451 185.894 112.143C185.894 116.157 187.057 119.302 189.385 121.581C191.738 123.859 194.932 124.999 198.967 124.999C200.881 124.999 202.691 124.649 204.398 123.95C206.105 123.225 207.528 122.28 208.666 121.115L212.739 127.601C210.696 129.154 208.42 130.371 205.911 131.251C203.403 132.132 200.829 132.572 198.191 132.572Z" fill="#FAF9F6"/>
<path d="M124.762 132.572C120.754 132.572 117.172 131.653 114.016 129.814C110.887 127.95 108.43 125.477 106.646 122.396C104.861 119.289 103.969 115.885 103.969 112.182C103.969 109.438 104.473 106.849 105.482 104.415C106.516 101.955 107.965 99.7804 109.827 97.8904C111.715 96.0003 113.926 94.5116 116.46 93.4241C118.995 92.3367 121.775 91.793 124.801 91.793C128.81 91.793 132.379 92.7251 135.508 94.5892C138.663 96.4275 141.133 98.9001 142.918 102.007C144.702 105.088 145.595 108.48 145.595 112.182C145.595 114.901 145.077 117.49 144.043 119.95C143.034 122.409 141.599 124.584 139.737 126.474C137.875 128.364 135.676 129.853 133.142 130.941C130.607 132.028 127.814 132.572 124.762 132.572ZM124.762 124.999C127.142 124.999 129.249 124.481 131.086 123.445C132.948 122.383 134.409 120.895 135.469 118.979C136.53 117.063 137.06 114.797 137.06 112.182C137.06 109.567 136.53 107.302 135.469 105.386C134.409 103.444 132.948 101.955 131.086 100.92C129.249 99.884 127.142 99.3662 124.762 99.3662C122.383 99.3662 120.262 99.884 118.4 100.92C116.564 101.955 115.116 103.444 114.055 105.386C113.021 107.302 112.503 109.567 112.503 112.182C112.503 114.797 113.034 117.063 114.094 118.979C115.154 120.895 116.603 122.383 118.439 123.445C120.301 124.481 122.409 124.999 124.762 124.999Z" fill="#FAF9F6"/>
<path d="M558.753 96.8008C560.066 95.4453 561.54 94.3706 563.176 93.5781C565.581 92.3872 568.116 91.792 570.779 91.792C574.271 91.792 577.18 92.5039 579.508 93.9277C581.835 95.3259 583.581 97.1386 584.745 99.3652C585.909 101.592 586.491 103.909 586.491 106.317V131.405H577.956V108.764C577.956 106.071 577.116 103.883 575.435 102.2C573.754 100.517 571.465 99.6626 568.568 99.6367C566.655 99.6367 564.96 100.065 563.486 100.919C562.012 101.747 560.849 102.926 559.995 104.453C559.168 105.981 558.753 107.754 558.753 109.773V131.405H550.219V75.9414L558.671 75.4805H558.753V96.8008Z" fill="#FAF9F6"/>
<path d="M504.288 91.7539C505.064 91.7539 505.801 91.7925 506.499 91.8701C507.197 91.9478 507.87 92.0644 508.517 92.2197L507.392 101.036C506.616 100.803 505.827 100.622 505.025 100.492C504.224 100.363 503.422 100.298 502.62 100.298C499.646 100.298 497.189 101.217 495.249 103.056C493.309 104.868 492.339 107.341 492.339 110.474V131.406H483.805V93.4238L492.333 92.958H492.339V98.2783C493.787 95.8704 495.546 94.1875 497.615 93.2295C499.684 92.2456 501.909 91.7539 504.288 91.7539Z" fill="#FAF9F6"/>
<path d="M418.63 91.793C422.147 91.793 425.057 92.4925 427.358 93.8906C429.66 95.2887 431.367 97.0875 432.479 99.2881C433.617 101.489 434.187 103.755 434.187 106.085V131.406H425.651V108.726C425.651 105.981 424.824 103.781 423.169 102.124C421.54 100.467 419.263 99.6377 416.341 99.6377C414.427 99.6377 412.721 100.066 411.221 100.92C409.747 101.774 408.582 102.965 407.729 104.492C406.875 105.994 406.448 107.755 406.448 109.774V131.406H397.914V93.4229L406.429 92.958H406.448V97.8516C408.052 95.7026 409.914 94.1616 412.035 93.2295C414.156 92.2716 416.354 91.793 418.63 91.793Z" fill="#FAF9F6"/>
<path d="M329.655 91.7891C333.198 91.7891 336.031 92.4886 338.151 93.8867C340.272 95.2848 341.798 97.0836 342.729 99.2842C343.686 101.485 344.165 103.751 344.165 106.081V131.402H335.63V108.566C335.63 105.9 334.893 103.751 333.419 102.12C331.971 100.463 329.85 99.6338 327.057 99.6338C325.221 99.6338 323.578 100.035 322.13 100.838C320.682 101.64 319.53 102.754 318.677 104.178C317.849 105.576 317.436 107.194 317.436 109.032V131.402H308.901V108.566C308.901 105.9 308.177 103.751 306.729 102.12C305.28 100.463 303.146 99.6338 300.327 99.6338C298.517 99.6338 296.874 100.035 295.4 100.838C293.952 101.64 292.802 102.754 291.948 104.178C291.121 105.576 290.706 107.194 290.706 109.032V131.402H282.172V93.4209L290.706 92.9541V98.2363C291.741 96.7346 292.931 95.517 294.275 94.585C295.62 93.627 297.043 92.9284 298.543 92.4883C300.043 92.0222 301.569 91.7891 303.121 91.7891C306.25 91.7891 308.849 92.4755 310.918 93.8477C313.013 95.2198 314.487 96.98 315.341 99.1289C317.255 96.3328 319.479 94.4175 322.014 93.3818C324.548 92.3204 327.095 91.7891 329.655 91.7891Z" fill="#FAF9F6"/>
<path d="M226.792 96.7998C228.105 95.4445 229.579 94.3705 231.215 93.5781C233.62 92.3872 236.155 91.792 238.818 91.792C242.31 91.792 245.219 92.5038 247.547 93.9277C249.875 95.3259 251.62 97.1386 252.784 99.3652C253.948 101.592 254.53 103.909 254.53 106.316V131.405H245.995V108.764C245.995 106.071 245.155 103.883 243.474 102.2C241.793 100.517 239.504 99.6626 236.607 99.6367C234.694 99.6367 233 100.065 231.525 100.919C230.051 101.747 228.888 102.926 228.034 104.453C227.207 105.981 226.792 107.754 226.792 109.773V131.405H218.258V75.9404L226.688 75.4805H226.792V96.7998Z" fill="#FAF9F6"/>
<path d="M172.327 91.7539C173.103 91.7539 173.84 91.7925 174.538 91.8701C175.236 91.9478 175.909 92.0644 176.556 92.2197L175.431 101.036C174.655 100.803 173.866 100.622 173.064 100.492C172.263 100.363 171.461 100.298 170.659 100.298C167.685 100.298 165.228 101.217 163.288 103.056C161.348 104.868 160.378 107.341 160.378 110.474V131.406H151.844V93.4258L160.378 92.96V98.2783C161.826 95.8704 163.585 94.1875 165.654 93.2295C167.723 92.2456 169.948 91.7539 172.327 91.7539Z" fill="#FAF9F6"/>
<path d="M88.7812 92.958H99.4492V100.026H88.7812V117.464C88.7812 120.156 89.2855 122.059 90.2939 123.173C91.3284 124.26 92.7767 124.805 94.6387 124.805C95.5438 124.805 96.3975 124.701 97.1992 124.494C98.001 124.287 98.7255 124.014 99.3721 123.678L100.885 130.591C99.7727 131.16 98.4923 131.627 97.0439 131.989C95.6217 132.378 94.1477 132.572 92.6221 132.572C88.872 132.572 85.8711 131.484 83.6211 129.31C81.3712 127.135 80.2461 123.807 80.2461 119.328V100.026H71.8281V92.958H80.2461V82.1875L88.5586 81.7344H88.7812V92.958Z" fill="#FAF9F6"/>
<g clip-path="url(#clip0_720_4773)">
<path d="M630.119 66.3994L591.341 68.6026C587.98 68.7936 585.68 65.9907 585.801 63.1157C585.896 62.1908 586.191 61.2924 586.662 60.4933C586.828 60.2463 587.018 60.0062 587.234 59.7763L588.253 58.6928C589.191 57.9762 590.363 57.5106 591.717 57.4364L634.803 55.0776L630.119 66.3994ZM641.268 2.35545C646.851 -3.5774 656.489 2.66337 653.374 10.194L638.358 46.4856L597.643 48.7145L641.268 2.35545Z" fill="#FDBD97"/>
<path d="M587.639 68.1886C583.766 64.352 586.275 57.7369 591.715 57.4391L665.412 53.4051C671.542 53.0695 674.463 60.8302 669.637 64.6286L630.656 95.3076C625.675 99.228 618.557 98.8215 614.054 94.3595L587.639 68.1886Z" fill="#EC6C46"/>
</g>
<defs>
<clipPath id="clip0_720_4773">
<rect width="98" height="98" fill="white" transform="translate(580)"/>
</clipPath>
</defs>
</svg>
